nColumns=28
nRows=60
DataType=double
version=3
OpenSimVersion=4.1
endheader
time	ground_force_1_vx	ground_force_1_vy	ground_force_1_vz	ground_force_1_px	ground_force_1_py	ground_force_1_pz	ground_force_1_mx	ground_force_1_my	ground_force_1_mz	ground_force_2_vx	ground_force_2_vy	ground_force_2_vz	ground_force_2_px	ground_force_2_py	ground_force_2_pz	ground_force_2_mx	ground_force_2_my	ground_force_2_mz	ground_force_3_vx	ground_force_3_vy	ground_force_3_vz	ground_force_3_px	ground_force_3_py	ground_force_3_pz	ground_force_3_mx	ground_force_3_my	ground_force_3_mz
2	9.80684	289.565	-29.8517	-0.263473	0.006	-0.343228	0	-0.244227	0	19.9765	258.851	25.4731	-0.250484	0.006	-0.842181	0	-0.213379	0	0	0	0	0	0	0	0	0	0
2.01	11.1007	294.438	-30.2031	-0.263838	0.006	-0.343016	0	-0.399098	0	20.3325	263.403	25.8787	-0.250899	0.006	-0.842431	0	-0.147114	0	0	0	0	0	0	0	0	0	0
2.02	12.2136	300.216	-30.7252	-0.264044	0.006	-0.342759	0	-0.557905	0	20.3609	268.324	26.3093	-0.251007	0.006	-0.842691	0	-0.072046	0	0	0	0	0	0	0	0	0	0
2.03	13.1186	306.741	-31.4179	-0.264105	0.006	-0.342465	0	-0.718555	0	20.0838	273.527	26.767	-0.250882	0.006	-0.842949	0	0.010402	0	0	0	0	0	0	0	0	0	0
2.04	13.808	313.752	-32.2624	-0.264037	0.006	-0.342146	0	-0.879042	0	19.5399	278.914	27.2601	-0.250593	0.006	-0.843202	0	0.09879	0	0	0	0	0	0	0	0	0	0
2.05	14.2918	320.946	-33.2235	-0.263858	0.006	-0.341813	0	-1.03735	0	18.7847	284.397	27.805	-0.250202	0.006	-0.843447	0	0.191566	0	0	0	0	0	0	0	0	0	0
2.06	14.5944	328.042	-34.2552	-0.26359	0.006	-0.341479	0	-1.19146	0	17.8859	289.895	28.4216	-0.249765	0.006	-0.843685	0	0.287085	0	0	0	0	0	0	0	0	0	0
2.07	14.7436	334.847	-35.3085	-0.26325	0.006	-0.341158	0	-1.33937	0	16.9132	295.331	29.1261	-0.249329	0.006	-0.843916	0	0.383541	0	0	0	0	0	0	0	0	0	0
2.08	14.7651	341.276	-36.3367	-0.262855	0.006	-0.340864	0	-1.47902	0	15.9293	300.637	29.9248	-0.248935	0.006	-0.844138	0	0.478899	0	0	0	0	0	0	0	0	0	0
2.09	14.6809	347.345	-37.2999	-0.262418	0.006	-0.340611	0	-1.60855	0	14.9889	305.765	30.8134	-0.248615	0.006	-0.844347	0	0.571062	0	0	0	0	0	0	0	0	0	0
2.1	14.5113	353.136	-38.1664	-0.261947	0.006	-0.340411	0	-1.72647	0	14.1418	310.692	31.7759	-0.248394	0.006	-0.844536	0	0.658025	0	0	0	0	0	0	0	0	0	0
2.11	14.277	358.774	-38.9164	-0.261449	0.006	-0.340273	0	-1.83182	0	13.4293	315.429	32.7885	-0.248291	0.006	-0.844697	0	0.737693	0	0	0	0	0	0	0	0	0	0
2.12	13.9964	364.397	-39.5425	-0.260926	0.006	-0.340201	0	-1.92415	0	12.8754	320.032	33.8287	-0.248312	0.006	-0.844822	0	0.807568	0	0	0	0	0	0	0	0	0	0
2.13	13.6879	370.126	-40.0469	-0.260377	0.006	-0.340195	0	-2.00346	0	12.4858	324.598	34.8803	-0.248453	0.006	-0.844905	0	0.864744	0	0	0	0	0	0	0	0	0	0
2.14	13.3728	376.033	-40.4366	-0.259795	0.006	-0.340248	0	-2.07021	0	12.2508	329.239	35.933	-0.248697	0.006	-0.844941	0	0.906293	0	0	0	0	0	0	0	0	0	0
2.15	13.0761	382.144	-40.7215	-0.259176	0.006	-0.340354	0	-2.12521	0	12.1469	334.071	36.9798	-0.24902	0.006	-0.84493	0	0.929918	0	0	0	0	0	0	0	0	0	0
2.16	12.8203	388.478	-40.9162	-0.258509	0.006	-0.340503	0	-2.16976	0	12.1379	339.234	38.019	-0.249393	0.006	-0.844873	0	0.934554	0	0	0	0	0	0	0	0	0	0
2.17	12.6178	395.086	-41.0394	-0.257785	0.006	-0.340685	0	-2.20578	0	12.1772	344.9	39.056	-0.249782	0.006	-0.844772	0	0.920715	0	0	0	0	0	0	0	0	0	0
2.18	12.4669	402.058	-41.1122	-0.256992	0.006	-0.340891	0	-2.23574	0	12.2182	351.274	40.0992	-0.250156	0.006	-0.844633	0	0.890902	0	0	0	0	0	0	0	0	0	0
2.19	12.3454	409.53	-41.1579	-0.25612	0.006	-0.341109	0	-2.26254	0	12.2222	358.563	41.1551	-0.250488	0.006	-0.844461	0	0.849723	0	0	0	0	0	0	0	0	0	0
2.2	12.2167	417.66	-41.1977	-0.255163	0.006	-0.34133	0	-2.28949	0	12.1645	366.938	42.2238	-0.250758	0.006	-0.844264	0	0.803575	0	0	0	0	0	0	0	0	0	0
2.21	12.0475	426.591	-41.2456	-0.25412	0.006	-0.341547	0	-2.32028	0	12.0349	376.503	43.2968	-0.250951	0.006	-0.844051	0	0.760119	0	0	0	0	0	0	0	0	0	0
2.22	11.8173	436.423	-41.3071	-0.253	0.006	-0.341753	0	-2.35882	0	11.835	387.274	44.3572	-0.251063	0.006	-0.843832	0	0.727518	0	0	0	0	0	0	0	0	0	0
2.23	11.5207	447.192	-41.3801	-0.251817	0.006	-0.341941	0	-2.40917	0	11.5806	399.169	45.3788	-0.251092	0.006	-0.843615	0	0.713752	0	0	0	0	0	0	0	0	0	0
2.24	11.1633	458.849	-41.4584	-0.250584	0.006	-0.342102	0	-2.47531	0	11.2986	412.025	46.3297	-0.251043	0.006	-0.84341	0	0.726006	0	0	0	0	0	0	0	0	0	0
2.25	10.7514	471.264	-41.5371	-0.249315	0.006	-0.342227	0	-2.56106	0	11.0216	425.62	47.1767	-0.250926	0.006	-0.843222	0	0.770342	0	0	0	0	0	0	0	0	0	0
2.26	10.2834	484.256	-41.6169	-0.248016	0.006	-0.342305	0	-2.66972	0	10.7799	439.707	47.8921	-0.25075	0.006	-0.84306	0	0.851516	0	0	0	0	0	0	0	0	0	0
2.27	9.74666	497.609	-41.7086	-0.24669	0.006	-0.342323	0	-2.80386	0	10.5913	454.041	48.4595	-0.250528	0.006	-0.842929	0	0.972913	0	0	0	0	0	0	0	0	0	0
2.28	9.11656	511.089	-41.8372	-0.245334	0.006	-0.342269	0	-2.96493	0	10.4573	468.388	48.8772	-0.250267	0.006	-0.842836	0	1.13656	0	0	0	0	0	0	0	0	0	0
2.29	8.35618	524.451	-42.0416	-0.243943	0.006	-0.342126	0	-3.15297	0	10.36	482.523	49.1606	-0.249971	0.006	-0.842787	0	1.34297	0	0	0	0	0	0	0	0	0	0
2.3	7.41951	537.457	-42.371	-0.242507	0.006	-0.341885	0	-3.36636	0	10.2619	496.235	49.3446	-0.249637	0.006	-0.842791	0	1.59095	0	0	0	0	0	0	0	0	0	0
2.31	6.26095	549.888	-42.8759	-0.241021	0.006	-0.341535	0	-3.60179	0	10.1115	509.323	49.4807	-0.249259	0.006	-0.842855	0	1.87747	0	0	0	0	0	0	0	0	0	0
2.32	4.84443	561.569	-43.6006	-0.239483	0.006	-0.341071	0	-3.85443	0	9.85363	521.616	49.6294	-0.248832	0.006	-0.842986	0	2.1978	0	0	0	0	0	0	0	0	0	0
2.33	3.14889	572.397	-44.5778	-0.237901	0.006	-0.340496	0	-4.11819	0	9.4416	532.982	49.8512	-0.248351	0.006	-0.843187	0	2.54577	0	0	0	0	0	0	0	0	0	0
2.34	1.17213	582.343	-45.8234	-0.236292	0.006	-0.339816	0	-4.38614	0	8.84817	543.341	50.1981	-0.247821	0.006	-0.843457	0	2.91409	0	0	0	0	0	0	0	0	0	0
2.35	-1.06682	591.434	-47.3323	-0.234682	0.006	-0.339044	0	-4.65096	0	8.07037	552.667	50.7076	-0.247252	0.006	-0.843789	0	3.29481	0	0	0	0	0	0	0	0	0	0
2.36	-3.5294	599.725	-49.0784	-0.233105	0.006	-0.338202	0	-4.90521	0	7.12591	560.981	51.3995	-0.246663	0.006	-0.844174	0	3.67953	0	0	0	0	0	0	0	0	0	0
2.37	-6.16259	607.284	-51.0199	-0.231597	0.006	-0.337311	0	-5.1415	0	6.04529	568.342	52.2763	-0.246077	0.006	-0.844596	0	4.05938	0	0	0	0	0	0	0	0	0	0
2.38	-8.90322	614.171	-53.1054	-0.230198	0.006	-0.336398	0	-5.35272	0	4.86551	574.823	53.3253	-0.245521	0.006	-0.845038	0	4.42503	0	0	0	0	0	0	0	0	0	0
2.39	-11.6799	620.435	-55.279	-0.228944	0.006	-0.335488	0	-5.53197	0	3.62681	580.497	54.5197	-0.245027	0.006	-0.845481	0	4.76695	0	0	0	0	0	0	0	0	0	0
2.4	-14.4141	626.097	-57.4851	-0.227869	0.006	-0.334609	0	-5.6726	0	2.37351	585.417	55.821	-0.244623	0.006	-0.845906	0	5.07572	0	0	0	0	0	0	0	0	0	0
2.41	-17.0211	631.157	-59.6703	-0.227003	0.006	-0.333785	0	-5.76839	0	1.15382	589.605	57.1838	-0.244338	0.006	-0.846296	0	5.34241	0	0	0	0	0	0	0	0	0	0
2.42	-19.4127	635.591	-61.7835	-0.226369	0.006	-0.333038	0	-5.81382	0	0.0140172	593.05	58.5612	-0.244191	0.006	-0.846635	0	5.55888	0	0	0	0	0	0	0	0	0	0
2.43	-21.5031	639.338	-63.7765	-0.225984	0.006	-0.332384	0	-5.8044	0	-1.00796	595.701	59.9099	-0.244193	0.006	-0.846915	0	5.71806	0	0	0	0	0	0	0	0	0	0
2.44	-23.2157	642.296	-65.6073	-0.225856	0.006	-0.331837	0	-5.73696	0	-1.8846	597.473	61.1943	-0.244349	0.006	-0.847131	0	5.81457	0	0	0	0	0	0	0	0	0	0
2.45	-24.486	644.343	-67.2424	-0.225987	0.006	-0.331403	0	-5.61018	0	-2.59623	598.256	62.3875	-0.244654	0.006	-0.847283	0	5.84506	0	0	0	0	0	0	0	0	0	0
2.46	-25.2608	645.366	-68.6576	-0.226376	0.006	-0.331088	0	-5.42502	0	-3.12581	597.931	63.471	-0.245103	0.006	-0.847374	0	5.80855	0	0	0	0	0	0	0	0	0	0
2.47	-25.5009	645.276	-69.8373	-0.22702	0.006	-0.33089	0	-5.18516	0	-3.45477	596.397	64.4329	-0.24569	0.006	-0.84741	0	5.70675	0	0	0	0	0	0	0	0	0	0
2.48	-25.1844	644.004	-70.7715	-0.227912	0.006	-0.330808	0	-4.89673	0	-3.56388	593.585	65.2659	-0.246408	0.006	-0.847397	0	5.54395	0	0	0	0	0	0	0	0	0	0
2.49	-24.3095	641.493	-71.4551	-0.229042	0.006	-0.330835	0	-4.56782	0	-3.43686	589.473	65.9647	-0.247253	0.006	-0.847341	0	5.32677	0	0	0	0	0	0	0	0	0	0
2.5	-22.893	637.69	-71.8865	-0.230395	0.006	-0.330963	0	-4.20795	0	-3.06321	584.078	66.5247	-0.248218	0.006	-0.84725	0	5.06374	0	0	0	0	0	0	0	0	0	0
2.51	-20.9663	632.535	-72.0644	-0.231954	0.006	-0.331179	0	-3.82769	0	-2.44051	577.462	66.9403	-0.249296	0.006	-0.84713	0	4.76466	0	0	0	0	0	0	0	0	0	0
2.52	-18.5705	625.97	-71.9843	-0.233697	0.006	-0.331472	0	-3.43795	0	-1.57616	569.725	67.2058	-0.250478	0.006	-0.846987	0	4.44001	0	0	0	0	0	0	0	0	0	0
2.53	-15.7539	617.959	-71.6392	-0.235605	0.006	-0.331829	0	-3.04957	0	-0.488265	560.995	67.3164	-0.251748	0.006	-0.84683	0	4.10033	0	0	0	0	0	0	0	0	0	0
2.54	-12.5724	608.499	-71.024	-0.237658	0.006	-0.33224	0	-2.67272	0	0.794644	551.406	67.268	-0.253088	0.006	-0.846664	0	3.7559	0	0	0	0	0	0	0	0	0	0
2.55	-9.0903	597.634	-70.1403	-0.239833	0.006	-0.332689	0	-2.3164	0	2.23282	541.088	67.0576	-0.254476	0.006	-0.846495	0	3.4165	0	0	0	0	0	0	0	0	0	0
2.56	-5.38108	585.452	-69.0005	-0.242109	0.006	-0.333166	0	-1.98802	0	3.77609	530.168	66.6851	-0.255887	0.006	-0.846331	0	3.09128	0	0	0	0	0	0	0	0	0	0
2.57	-1.52601	572.075	-67.6286	-0.244464	0.006	-0.333657	0	-1.69328	0	5.36877	518.779	66.1564	-0.257299	0.006	-0.846177	0	2.78847	0	0	0	0	0	0	0	0	0	0
2.58	2.39103	557.659	-66.0587	-0.246875	0.006	-0.334148	0	-1.43609	0	6.95747	507.061	65.4858	-0.258687	0.006	-0.846039	0	2.51515	0	0	0	0	0	0	0	0	0	0
2.59	6.28938	542.39	-64.3334	-0.249328	0.006	-0.334629	0	-1.21845	0	8.49772	495.16	64.6954	-0.260034	0.006	-0.845923	0	2.27682	0	0	0	0	0	0	0	0	0	0
